<svg width="64" height="64" viewBox="0 0 64 64" fill="none" xmlns="http://www.w3.org/2000/svg">
<path d="M37.6016 62H26.3983V54.5311H37.6016V62Z" stroke="#383838" stroke-width="4" stroke-miterlimit="10" stroke-linecap="round" stroke-linejoin="round"/>
<path d="M26.3983 54.531L18.9294 43.2032L32 16.9376L45.0705 43.2032L37.6016 54.531" stroke="#383838" stroke-width="4" stroke-miterlimit="10" stroke-linecap="round" stroke-linejoin="round"/>
<path d="M5.73444 9.46875C3.67203 9.46875 2 7.79684 2 5.73431C2 3.6719 3.67203 1.99987 5.73444 1.99987C7.79685 1.99987 9.46888 3.67178 9.46888 5.73431C9.46888 7.79672 7.79685 9.46875 5.73444 9.46875Z" stroke="#383838" stroke-width="4" stroke-miterlimit="10" stroke-linecap="round" stroke-linejoin="round"/>
<path d="M35.7344 9.46875H28.2656V1.99987H35.7344V9.46875Z" stroke="#383838" stroke-width="4" stroke-miterlimit="10" stroke-linecap="round" stroke-linejoin="round"/>
<path d="M58.2656 9.46875C56.2032 9.46875 54.5311 7.79684 54.5311 5.73431C54.5311 3.6719 56.2032 1.99987 58.2656 1.99987C60.328 1.99987 62 3.67178 62 5.73431C62 7.79672 60.328 9.46875 58.2656 9.46875Z" stroke="#383838" stroke-width="4" stroke-miterlimit="10" stroke-linecap="round" stroke-linejoin="round"/>
<path d="M32 16.9378V43.2034" stroke="#383838" stroke-width="4" stroke-miterlimit="10" stroke-linecap="round" stroke-linejoin="round"/>
<path d="M9.46887 5.73438H28.2656" stroke="#383838" stroke-width="4" stroke-miterlimit="10" stroke-linecap="round" stroke-linejoin="round"/>
<path d="M35.7344 5.73438H54.5311" stroke="#383838" stroke-width="4" stroke-miterlimit="10" stroke-linecap="round" stroke-linejoin="round"/>
<path d="M5.7345 31.8755C5.7345 18.7061 15.5973 7.81126 28.2656 5.99918" stroke="#383838" stroke-width="4" stroke-miterlimit="10" stroke-linecap="round" stroke-linejoin="round"/>
<path d="M35.7344 5.99918C48.4028 7.81126 58.2656 18.7061 58.2656 31.8755" stroke="#383838" stroke-width="4" stroke-miterlimit="10" stroke-linecap="round" stroke-linejoin="round"/>
</svg>
