<svg width="64" height="53" viewBox="0 0 64 53" fill="none" xmlns="http://www.w3.org/2000/svg">
<path d="M46.5571 45.4633C46.8878 46.258 47.6429 46.8132 48.5038 46.8132H52.5311C53.6357 46.8132 54.5311 45.9178 54.5311 44.8132V3.99995C54.5311 2.89539 53.6357 1.99995 52.5311 1.99995H48.5038C47.6429 1.99995 46.8878 2.55515 46.5571 3.34993C43.9587 9.59357 38.3108 14.1817 31.6233 15.5192L24.5977 16.9002C24.4706 16.9251 24.3414 16.9377 24.2119 16.9377H4C2.89543 16.9377 2 17.8331 2 18.9377V29.8755C2 30.98 2.89543 31.8755 4 31.8755H24.2119C24.3414 31.8755 24.4706 31.888 24.5977 31.913L31.6233 33.2939C38.3108 34.6314 43.9587 39.2196 46.5571 45.4633Z" stroke="#383838" stroke-width="4" stroke-miterlimit="10"/>
<path d="M24.4066 31.8752V16.9375" stroke="#383838" stroke-width="4" stroke-miterlimit="10"/>
<path d="M54.5311 16.9375L58.6833 19.0136C60.716 20.0299 62 22.1337 62 24.4064V24.4064C62 26.679 60.716 28.7828 58.6833 29.7992L54.5311 31.8752" stroke="#383838" stroke-width="4" stroke-miterlimit="10"/>
<path d="M16.9378 31.8757V46.8134C16.9378 48.8759 15.2658 50.5479 13.2033 50.5479V50.5479C11.1408 50.5479 9.46887 48.8759 9.46887 46.8134V31.8757" stroke="#383838" stroke-width="4" stroke-miterlimit="10"/>
</svg>
